<svg xmlns="http://www.w3.org/2000/svg" width="640" height="400" viewBox="0 0 640 400">
  <defs>
    <linearGradient id="consulting-gradient" x1="0%" y1="0%" x2="100%" y2="100%">
      <stop offset="0%" stop-color="#4f46e5" stop-opacity="0.15" />
      <stop offset="100%" stop-color="#312e81" stop-opacity="0.35" />
    </linearGradient>
  </defs>
  <rect width="640" height="400" rx="32" fill="#eef2ff" />
  <rect x="48" y="56" width="544" height="288" rx="24" fill="url(#consulting-gradient)" />
  <rect x="96" y="112" width="212" height="176" rx="18" fill="#ffffff" opacity="0.95" />
  <rect x="128" y="148" width="148" height="20" rx="10" fill="#4f46e5" opacity="0.35" />
  <rect x="128" y="188" width="132" height="16" rx="8" fill="#6366f1" opacity="0.45" />
  <rect x="128" y="220" width="112" height="16" rx="8" fill="#6366f1" opacity="0.2" />
  <circle cx="408" cy="192" r="78" fill="#312e81" opacity="0.18" />
  <circle cx="452" cy="206" r="58" fill="#4338ca" opacity="0.25" />
  <path d="M396 248c8-28 22-52 44-70 20 14 30 32 34 50" stroke="#1e1b4b" stroke-width="8" stroke-linecap="round" fill="none" opacity="0.3" />
  <rect x="360" y="260" width="180" height="20" rx="10" fill="#1e1b4b" opacity="0.12" />
  <text x="64" y="340" fill="#1e1b4b" font-size="24" font-family="Inter, system-ui, -apple-system, sans-serif" font-weight="600">
    Consulting digital
  </text>
</svg>
