<svg width="66" height="66" viewBox="0 0 66 66" fill="none" xmlns="http://www.w3.org/2000/svg">
<path d="M13.75 57.75C12.2375 57.75 10.9432 57.2119 9.867 56.1358C8.79083 55.0596 8.25183 53.7644 8.25 52.25V17.9438C8.25 17.3021 8.35358 16.6833 8.56075 16.0875C8.76792 15.4917 9.07683 14.9417 9.4875 14.4375L12.925 10.2438C13.4292 9.6021 14.0589 9.10893 14.8142 8.76426C15.5696 8.4196 16.3607 8.24818 17.1875 8.25001H48.8125C49.6375 8.25001 50.4286 8.42235 51.1858 8.76701C51.9429 9.11168 52.5727 9.60393 53.075 10.2438L56.5125 14.4375C56.925 14.9417 57.2348 15.4917 57.442 16.0875C57.6492 16.6833 57.7518 17.3021 57.75 17.9438V31.4188C56.8792 31.0979 55.9854 30.8339 55.0687 30.6268C54.1521 30.4196 53.2125 30.3178 52.25 30.3215C50.7375 30.3215 49.2818 30.4938 47.883 30.8385C46.4842 31.1832 45.1898 31.7204 44 32.45V22H22V44L33 38.5L36.9875 40.4938C36.6208 41.4563 36.3229 42.4536 36.0938 43.4858C35.8646 44.5179 35.75 45.5831 35.75 46.6813C35.75 48.7438 36.1167 50.7265 36.85 52.6295C37.5833 54.5325 38.6375 56.2393 40.0125 57.75H13.75ZM49.5 57.75V49.5H41.25V44H49.5V35.75H55V44H63.25V49.5H55V57.75H49.5ZM14.85 16.5H51.15L48.8125 13.75H17.1875L14.85 16.5Z" fill="white"/>
</svg>
